<svg xmlns="http://www.w3.org/2000/svg" width="19" height="19" viewBox="0 0 19 19">
    <g fill="#000" fill-rule="nonzero" transform="translate(.667 .667)">
        <path d="M14.932 2.564A8.687 8.687 0 0 0 8.746 0C6.407 0 4.213.91 2.56 2.564c-3.197 3.197-3.42 8.313-.552 11.765-.28.566-.732 1.225-1.402 1.554a.82.82 0 0 0 .237 1.547c.166.026.403.052.692.052.773 0 1.912-.182 3.078-1.022a8.749 8.749 0 0 0 10.322-1.524A8.687 8.687 0 0 0 17.5 8.75a8.69 8.69 0 0 0-2.567-6.186zm-.707 11.665a7.749 7.749 0 0 1-9.405 1.207.497.497 0 0 0-.607.077.164.164 0 0 0-.04.03c-1.003.777-1.987.94-2.638.94H1.53c.751-.548 1.225-1.362 1.502-1.995a.511.511 0 0 0 .026-.322.52.52 0 0 0-.122-.28C.229 10.825.369 6.163 3.263 3.27c3.022-3.023 7.94-3.023 10.958 0a7.752 7.752 0 0 1 .004 10.958z"/>
        <circle cx="8.746" cy="8.75" r="1"/>
        <circle cx="11.913" cy="8.75" r="1"/>
        <circle cx="5.579" cy="8.75" r="1"/>
    </g>
</svg>
