<svg xmlns="http://www.w3.org/2000/svg" width="20" height="18" viewBox="0 0 20 18">
    <path fill="#000" fill-rule="nonzero" stroke="#000" stroke-width=".3" d="M10 17.164c-.261 0-.513-.094-.709-.266-.74-.65-1.454-1.26-2.084-1.797l-.004-.003c-1.847-1.578-3.442-2.94-4.551-4.282C1.412 9.316.833 7.894.833 6.34c0-1.51.517-2.903 1.455-3.922a4.925 4.925 0 0 1 3.667-1.6c1.058 0 2.027.335 2.88.997A5.9 5.9 0 0 1 10 3.033a5.901 5.901 0 0 1 1.165-1.218 4.605 4.605 0 0 1 2.88-.997c1.416 0 2.718.568 3.667 1.6.938 1.02 1.455 2.412 1.455 3.922 0 1.554-.578 2.976-1.819 4.476-1.11 1.342-2.704 2.704-4.55 4.282a210.44 210.44 0 0 0-2.09 1.8 1.075 1.075 0 0 1-.708.266zM5.955 1.894a3.864 3.864 0 0 0-2.878 1.253c-.754.82-1.17 1.954-1.17 3.193 0 1.307.485 2.476 1.571 3.79 1.05 1.27 2.613 2.604 4.422 4.149l.003.003c.633.54 1.35 1.152 2.095 1.806.751-.655 1.469-1.269 2.103-1.81 1.808-1.544 3.37-2.878 4.42-4.148 1.087-1.314 1.572-2.483 1.572-3.79 0-1.239-.416-2.372-1.17-3.193a3.864 3.864 0 0 0-2.878-1.253c-.815 0-1.563.26-2.223.772-.59.456-1 1.033-1.24 1.437a.672.672 0 0 1-.582.332.672.672 0 0 1-.582-.332c-.24-.404-.65-.98-1.24-1.437a3.557 3.557 0 0 0-2.223-.772z"/>
</svg>
