<svg xmlns="http://www.w3.org/2000/svg" width="21" height="22" viewBox="0 0 21 22">
    <g fill="#FFF" fill-rule="nonzero" stroke="#FFF" stroke-width=".5">
        <path d="M11.404 6.505a.65.65 0 0 0-.697.03L7.77 9.047H5.467a.218.218 0 0 0-.217.22v4.164a.22.22 0 0 0 .217.22l2.299-.002 2.934 2.727a.656.656 0 0 0 .704.036.686.686 0 0 0 .346-.604v-8.7c0-.254-.13-.48-.346-.603zm-.087 9.303a.252.252 0 0 1-.126.222.225.225 0 0 1-.216.006l-2.908-2.702v-.999a.218.218 0 0 0-.217-.219.218.218 0 0 0-.217.22v.875l-1.95.001V9.486h1.95v3.068c0 .122.097.217.217.217s.217-.095.217-.217V9.368l2.904-2.485a.224.224 0 0 1 .22.004.252.252 0 0 1 .126.222v8.699zM14.295 7.345a.225.225 0 0 0-.283.138.22.22 0 0 0 .14.278c1.586.53 2.651 1.992 2.651 3.638 0 1.645-1.063 3.107-2.646 3.638a.219.219 0 0 0 .072.428.224.224 0 0 0 .072-.012c1.764-.592 2.949-2.22 2.949-4.054s-1.187-3.463-2.955-4.054z"/>
        <path d="M15.4 11.237c0-1.372-.827-2.597-2.011-2.978-.11-.035-.224.035-.256.157-.031.122.032.25.141.284 1.009.325 1.714 1.368 1.714 2.537 0 1.168-.705 2.211-1.714 2.536-.11.035-.172.162-.14.284.025.1.108.166.197.166a.19.19 0 0 0 .058-.009c1.184-.381 2.011-1.606 2.011-2.977z"/>
    </g>
</svg>
