<svg xmlns="http://www.w3.org/2000/svg" xmlns:xlink="http://www.w3.org/1999/xlink" width="374" height="193" viewBox="0 0 374 193">
    <defs>
        <circle id="a" cx="245.5" cy="245.5" r="245.5"/>
        <path id="c" d="M0 0h375v812H0z"/>
        <path id="e" d="M13 0h1014c7.18 0 13 5.82 13 13v842c0 7.18-5.82 13-13 13H13c-7.18 0-13-5.82-13-13V13C0 5.82 5.82 0 13 0z"/>
        <path id="f" d="M1090.442-321.222l189.253 1028.376c6.553 35.61-5.455 68.984-26.822 74.542L239.24 1045.342c-21.367 5.557-44-18.806-50.554-54.417L-.568-37.451c-6.553-35.611 5.455-68.985 26.822-74.542L1039.888-375.64c21.367-5.558 44 18.806 50.554 54.417z"/>
        <path id="g" d="M1068.646-249.317l189.252 1028.376c6.554 35.611-5.455 68.985-26.821 74.542L217.443 1117.247c-21.367 5.558-44-18.806-50.554-54.417L-22.364 34.454c-6.553-35.61 5.455-68.984 26.822-74.542l1013.634-263.646c21.366-5.557 44 18.806 50.554 54.417z"/>
        <path id="h" d="M1040.622-228.773l189.252 1028.376c6.554 35.611-5.455 68.985-26.821 74.543L189.419 1137.792c-21.367 5.557-44-18.806-50.554-54.417L-50.388 54.999c-6.553-35.611 5.455-68.985 26.822-74.543L990.068-283.19c21.366-5.557 44 18.806 50.554 54.417z"/>
        <path id="i" d="M1015.673-222.447l189.253 1028.376c6.553 35.61-5.455 68.984-26.822 74.542L164.47 1144.117c-21.367 5.557-44-18.806-50.554-54.417L-75.337 61.324c-6.553-35.611 5.455-68.985 26.822-74.542L965.119-276.864c21.367-5.558 44 18.806 50.554 54.417z"/>
        <path id="j" d="M13-17h1014c7.18 0 13 5.82 13 13v842c0 7.18-5.82 13-13 13H13c-7.18 0-13-5.82-13-13V-4c0-7.18 5.82-13 13-13z"/>
    </defs>
    <g fill="none" fill-rule="evenodd" transform="translate(-5 -298)">
        <mask id="b" fill="#fff">
            <use xlink:href="#a"/>
        </mask>
        <use fill="#F95563" xlink:href="#a"/>
        <g mask="url(#b)">
            <g transform="translate(4 -309)">
                <mask id="d" fill="#fff">
                    <use xlink:href="#c"/>
                </mask>
                <use fill="#D8D8D8" xlink:href="#c"/>
                <g mask="url(#d)">
                    <g transform="translate(0 -17)">
                        <use fill="#F95563" xlink:href="#e"/>
                        <use fill="#E7D9D9" opacity=".051" transform="rotate(8 639.564 334.851)" xlink:href="#f"/>
                        <use fill="#E7D9D9" opacity=".051" transform="rotate(8 617.767 406.757)" xlink:href="#g"/>
                        <use fill="#E7D9D9" opacity=".051" transform="rotate(8 589.743 427.301)" xlink:href="#h"/>
                        <use fill="#E7D9D9" opacity=".051" transform="rotate(8 564.794 433.626)" xlink:href="#i"/>
                    </g>
                </g>
                <path stroke="#FFF" stroke-width="80" d="M13-57h1014c29.271 0 53 23.729 53 53v842c0 29.271-23.729 53-53 53H13c-29.271 0-53-23.729-53-53V-4c0-29.271 23.729-53 53-53z"/>
            </g>
        </g>
    </g>
</svg>
