<svg xmlns="http://www.w3.org/2000/svg" xmlns:xlink="http://www.w3.org/1999/xlink" width="32" height="19" viewBox="0 0 32 19"><defs><path id="a" d="M.27.205h9.497v11.67H.27z"/><path id="c" d="M.068.205h9.497v11.67H.068z"/></defs><g fill="none" fill-rule="evenodd"><path fill="#FFF" d="M17.23 7.125C17.23 3.19 20.538 0 24.617 0 28.693 0 32 3.19 32 7.125s-3.307 7.125-7.384 7.125c-4.079 0-7.385-3.19-7.385-7.125"/><g transform="translate(22.154 7.125)"><mask id="b" fill="#fff"><use xlink:href="#a"/></mask><path fill="#FFF" d="M9.756.205s.721 6.662-9.486 11.67c0 0 3.009-3.79 1.275-7.3l8.21-4.37z" mask="url(#b)"/></g><path fill="#FFF" d="M0 7.125C0 3.19 3.306 0 7.385 0c4.077 0 7.384 3.19 7.384 7.125s-3.307 7.125-7.384 7.125C3.305 14.25 0 11.06 0 7.125"/><g transform="translate(5.103 7.125)"><mask id="d" fill="#fff"><use xlink:href="#c"/></mask><path fill="#FFF" d="M9.554.205s.722 6.662-9.486 11.67c0 0 3.009-3.79 1.276-7.3l8.21-4.37z" mask="url(#d)"/></g></g></svg>