<svg xmlns="http://www.w3.org/2000/svg" width="16" height="17" viewBox="0 0 16 17">
    <path fill="#000" fill-rule="nonzero" stroke="#000" stroke-width=".5" d="M12.342 10.637c-.854 0-1.616.41-2.103 1.046l-4.08-2.302a2.715 2.715 0 0 0-.003-1.772l4.077-2.298a2.642 2.642 0 0 0 2.106 1.052c1.461 0 2.655-1.202 2.655-2.681 0-1.48-1.19-2.682-2.655-2.682-1.465 0-2.655 1.202-2.655 2.682 0 .311.052.61.15.887L5.762 6.868a2.633 2.633 0 0 0-2.106-1.053C2.193 5.815 1 7.017 1 8.497s1.193 2.682 2.658 2.682c.857 0 1.622-.415 2.11-1.056l4.076 2.301c-.099.28-.154.583-.154.894 0 1.477 1.19 2.682 2.655 2.682C13.81 16 15 14.798 15 13.318s-1.193-2.681-2.658-2.681zm0-8.793c1.005 0 1.822.825 1.822 1.84 0 1.016-.817 1.842-1.822 1.842a1.833 1.833 0 0 1-1.823-1.841c0-1.016.82-1.84 1.823-1.84zm-8.684 8.494a1.833 1.833 0 0 1-1.822-1.841c0-1.015.817-1.84 1.822-1.84 1.005 0 1.823.825 1.823 1.84 0 1.015-.82 1.84-1.823 1.84zm8.684 4.818a1.833 1.833 0 0 1-1.823-1.84c0-1.016.818-1.842 1.823-1.842s1.822.826 1.822 1.841c0 1.016-.817 1.84-1.822 1.84z"/>
</svg>
