<svg xmlns="http://www.w3.org/2000/svg" width="20" height="19" viewBox="0 0 20 19">
    <path fill="#000" fill-rule="nonzero" stroke="#000" stroke-width=".5" d="M18.61 8.704c.354-.34.479-.84.326-1.304a1.278 1.278 0 0 0-1.042-.866l-4.359-.624a.569.569 0 0 1-.429-.308L11.158 1.71A1.285 1.285 0 0 0 10 1c-.495 0-.939.272-1.157.71l-1.95 3.892a.57.57 0 0 1-.429.308l-4.358.624c-.49.07-.889.402-1.042.866-.153.464-.028.964.327 1.304l3.153 3.03c.135.13.196.316.164.498l-.744 4.279c-.083.48.113.957.513 1.244.4.287.921.325 1.36.097l3.898-2.02a.578.578 0 0 1 .53 0l3.898 2.02a1.304 1.304 0 0 0 1.36-.097c.4-.287.597-.764.513-1.244l-.744-4.279a.557.557 0 0 1 .164-.497l3.153-3.03zm-4.029 3.648l.745 4.279a.548.548 0 0 1-.227.55.568.568 0 0 1-.6.042l-3.898-2.02a1.311 1.311 0 0 0-1.202 0l-3.897 2.02a.569.569 0 0 1-.6-.042.549.549 0 0 1-.227-.55l.744-4.279a1.261 1.261 0 0 0-.371-1.126l-3.154-3.03a.545.545 0 0 1-.144-.576.557.557 0 0 1 .46-.383l4.358-.624c.42-.06.784-.32.972-.696l1.949-3.893a.56.56 0 0 1 .51-.313.56.56 0 0 1 .512.313l1.949 3.893c.188.376.551.636.972.696l4.358.624c.22.032.392.174.46.383a.546.546 0 0 1-.144.576l-3.154 3.03a1.26 1.26 0 0 0-.37 1.126z"/>
</svg>
