<svg xmlns="http://www.w3.org/2000/svg" width="20" height="20" viewBox="0 0 20 20"><g fill="#000" fill-rule="nonzero" transform="translate(.833 .833)"><path d="M9.167 0C4.112 0 0 4.112 0 9.167c0 5.054 4.112 9.166 9.167 9.166 5.054 0 9.166-4.112 9.166-9.166C18.333 4.112 14.221 0 9.167 0zm0 17.205c-4.433 0-8.039-3.606-8.039-8.038 0-4.433 3.606-8.039 8.039-8.039 4.432 0 8.038 3.606 8.038 8.039 0 4.432-3.606 8.038-8.038 8.038z"/><circle cx="9.313" cy="5.512" r="1"/><path d="M9.064 7.994a.564.564 0 0 0-.564.564v4.795a.564.564 0 0 0 1.128 0V8.558a.564.564 0 0 0-.564-.564z"/></g></svg>